<svg width="73" height="73" viewBox="0 0 73 73" fill="none" xmlns="http://www.w3.org/2000/svg">
<g filter="url(#filter0_d_1_841)">
<path d="M36.8513 64.8309C54.4878 64.8309 68.8326 50.4861 68.8326 32.8525C68.8326 15.216 54.4878 0.871155 36.8513 0.871155C19.2148 0.871155 4.87004 15.216 4.87004 32.8525C4.87289 50.4861 19.2177 64.8309 36.8513 64.8309ZM36.8513 1.4502C54.1655 1.4502 68.2536 15.5383 68.2536 32.8525C68.2536 50.1666 54.1684 64.2519 36.8542 64.2519C19.54 64.2519 5.45194 50.1666 5.45194 32.8525C5.45194 15.5383 19.5372 1.4502 36.8513 1.4502Z" fill="#303030"/>
<path d="M23.6651 44.4473L38.8604 45.7964C38.8735 44.5709 38.9577 40.3237 39.5652 38.3907C40.2568 36.1843 46.5343 36.9864 48.1306 37.2284C49.0247 32.7313 50.5422 29.8832 50.6079 29.7622C50.6868 29.615 50.8709 29.5597 51.0182 29.6386C51.1654 29.7175 51.2207 29.9016 51.1418 30.0489C51.126 30.0778 49.5376 33.0653 48.6697 37.6281C48.6382 37.7885 48.483 37.8963 48.3226 37.87C45.3956 37.3861 40.5882 37.1468 40.1438 38.5696C39.4731 40.705 39.4653 46.0725 39.4653 46.1251C39.4653 46.2093 39.4284 46.2908 39.368 46.3487C39.3127 46.3986 39.2391 46.4276 39.1628 46.4276C39.1549 46.4276 39.1444 46.4276 39.1365 46.4276L23.6152 45.0495C23.4495 45.0337 23.3259 44.8865 23.3417 44.7208C23.3496 44.5551 23.4995 44.4341 23.6651 44.4473Z" fill="#303030"/>
<path d="M20.7382 37.0022C20.9644 36.6156 21.3326 36.3763 21.8349 36.2895C23.4154 36.016 32.8224 37.0416 34.5975 37.2389C34.7106 36.6419 34.9315 35.1166 34.5449 33.7622C34.1425 32.3526 33.3036 29.4203 35.6968 28.6761C36.8171 28.3263 38.0689 28.4894 39.5153 28.6761C40.6882 28.8286 42.0189 28.9996 43.5101 28.9233C44.2859 28.8839 44.9328 28.8549 45.5193 28.8286C47.4285 28.7445 48.6935 28.6892 51.6231 28.3447C52.2149 28.1659 52.8565 28.2895 53.3404 28.6814C53.8348 29.0811 54.0952 29.6938 54.0347 30.3276L52.1491 50.5275C52.1386 50.6564 52.0465 50.7616 51.9229 50.7931L51.8493 50.8115V51.3375C51.8493 51.448 51.7757 51.5453 51.6678 51.5742L50.1662 51.966C50.011 52.0055 49.8611 51.8898 49.8611 51.7293V51.3112L43.326 52.9549V53.4992C43.326 53.6097 43.255 53.707 43.1471 53.7412L41.0774 54.3802C41.038 54.3934 40.9959 54.396 40.9565 54.3881L39.3917 54.0962C39.2734 54.0752 39.1866 53.97 39.1866 53.849V53.3257L23.2813 51.5689V51.8529C23.2813 51.9765 23.1735 52.0739 23.0498 52.0607L21.706 51.9029C21.6008 51.8898 21.5219 51.8004 21.5219 51.6952V51.3585C21.4088 51.3138 21.3273 51.2086 21.3273 51.0798V40.3894L20.7145 39.2244C20.7067 39.2113 20.7014 39.1981 20.6961 39.185C20.6725 39.1324 20.2359 37.8622 20.7382 37.0022ZM21.2563 38.9667L21.8927 40.1791C21.9164 40.2238 21.9269 40.2711 21.9269 40.3211V50.8168L40.7172 52.8917L41.059 40.5078C41.0643 40.3395 41.2037 40.2054 41.3694 40.2132C41.5377 40.2185 41.6692 40.3579 41.6639 40.5236L41.3247 52.8365L51.5653 50.2619L53.4325 30.275C53.4719 29.8464 53.2957 29.4282 52.9591 29.1574C52.6225 28.8865 52.1938 28.805 51.7757 28.9365C51.7573 28.9417 51.7389 28.947 51.7178 28.9496C48.7461 29.2994 47.4706 29.3546 45.5429 29.4414C44.9591 29.4677 44.3122 29.4966 43.539 29.5361C41.9926 29.615 40.633 29.4414 39.4338 29.2862C38.0558 29.1074 36.8671 28.9549 35.873 29.2652C34.2661 29.7649 34.5633 31.6478 35.1235 33.6071C35.6573 35.4795 35.1471 37.5676 35.1261 37.6544C35.0893 37.8017 34.9525 37.899 34.7974 37.8806C30.9157 37.4414 23.2339 36.6682 21.9322 36.8944C21.6113 36.9496 21.3904 37.089 21.2563 37.3151C20.967 37.8069 21.1537 38.6537 21.2563 38.9667Z" fill="#303030"/>
<path d="M25.4955 35.7504C25.6638 35.7504 25.798 35.6136 25.798 35.448V22.6827C25.798 22.5144 25.6612 22.3802 25.4955 22.3802C25.3272 22.3802 25.1931 22.517 25.1931 22.6827V35.448C25.1931 35.6163 25.3299 35.7504 25.4955 35.7504Z" fill="#303030"/>
<path d="M19.9623 22.0331H31.0314C31.1287 22.0331 31.2207 21.9858 31.2786 21.9042C31.3364 21.8253 31.3496 21.7228 31.318 21.6281L27.773 11.5111C27.7309 11.3901 27.6152 11.3086 27.4863 11.3086H23.5074C23.3785 11.3086 23.2654 11.3901 23.2207 11.5111L19.6757 21.6281C19.6441 21.7202 19.6573 21.8227 19.7151 21.9042C19.773 21.9858 19.865 22.0331 19.9623 22.0331Z" fill="#303030"/>
<path d="M24.1254 24.6498C24.2937 24.6498 24.4279 24.5131 24.4279 24.3474V22.6827C24.4279 22.5144 24.2911 22.3802 24.1254 22.3802C23.9571 22.3802 23.823 22.517 23.823 22.6827V24.3474C23.823 24.5131 23.9571 24.6498 24.1254 24.6498Z" fill="#303030"/>
<path d="M27.9623 24.229C28.8144 24.229 29.5087 23.5347 29.5087 22.6827C29.5087 22.5144 29.3719 22.3802 29.2062 22.3802C29.0379 22.3802 28.9038 22.517 28.9038 22.6827C28.9038 23.2008 28.4804 23.6242 27.9623 23.6242C27.4442 23.6242 27.0208 23.2008 27.0208 22.6827C27.0208 22.5144 26.8841 22.3802 26.7184 22.3802C26.5501 22.3802 26.416 22.517 26.416 22.6827C26.416 23.5347 27.1102 24.229 27.9623 24.229Z" fill="#303030"/>
</g>
<defs>
<filter id="filter0_d_1_841" x="0.869995" y="0.871155" width="71.9626" height="71.9597" filterUnits="userSpaceOnUse" color-interpolation-filters="sRGB">
<feFlood flood-opacity="0" result="BackgroundImageFix"/>
<feColorMatrix in="SourceAlpha" type="matrix" values="0 0 0 0 0 0 0 0 0 0 0 0 0 0 0 0 0 0 127 0" result="hardAlpha"/>
<feOffset dy="4"/>
<feGaussianBlur stdDeviation="2"/>
<feComposite in2="hardAlpha" operator="out"/>
<feColorMatrix type="matrix" values="0 0 0 0 0 0 0 0 0 0 0 0 0 0 0 0 0 0 0.25 0"/>
<feBlend mode="normal" in2="BackgroundImageFix" result="effect1_dropShadow_1_841"/>
<feBlend mode="normal" in="SourceGraphic" in2="effect1_dropShadow_1_841" result="shape"/>
</filter>
</defs>
</svg>
