<svg width="375" height="230" viewBox="0 0 375 230" fill="none" xmlns="http://www.w3.org/2000/svg">
<g filter="url(#filter0_d_11_1445)">
<mask id="mask0_11_1445" style="mask-type:alpha" maskUnits="userSpaceOnUse" x="21" y="24" width="333" height="180">
<rect x="21" y="24" width="333" height="180" rx="7.76676" fill="#222222"/>
</mask>
<g mask="url(#mask0_11_1445)">
<g filter="url(#filter1_d_11_1445)">
<rect x="21" y="24" width="333" height="180" rx="7.76676" fill="#242424"/>
</g>
<path d="M142.837 124C163.307 120.976 184.945 123.974 201.133 127.599C218.453 131.477 235.853 135.53 253.571 136.573C286.275 138.496 318.965 132.582 348.922 119.321L355.351 116.475L363.603 210.647H84L86.0746 194.88C86.3095 193.095 86.6173 191.326 87.0833 189.587C90.2544 177.753 105.398 129.531 142.837 124Z" fill="url(#paint0_linear_11_1445)" fill-opacity="0.05"/>
</g>
</g>
<defs>
<filter id="filter0_d_11_1445" x="-3.27114" y="0.699708" width="381.542" height="228.542" filterUnits="userSpaceOnUse" color-interpolation-filters="sRGB">
<feFlood flood-opacity="0" result="BackgroundImageFix"/>
<feColorMatrix in="SourceAlpha" type="matrix" values="0 0 0 0 0 0 0 0 0 0 0 0 0 0 0 0 0 0 127 0" result="hardAlpha"/>
<feOffset dy="0.970845"/>
<feGaussianBlur stdDeviation="12.1356"/>
<feColorMatrix type="matrix" values="0 0 0 0 0 0 0 0 0 0 0 0 0 0 0 0 0 0 0.34 0"/>
<feBlend mode="normal" in2="BackgroundImageFix" result="effect1_dropShadow_11_1445"/>
<feBlend mode="normal" in="SourceGraphic" in2="effect1_dropShadow_11_1445" result="shape"/>
</filter>
<filter id="filter1_d_11_1445" x="11" y="15" width="353" height="200" filterUnits="userSpaceOnUse" color-interpolation-filters="sRGB">
<feFlood flood-opacity="0" result="BackgroundImageFix"/>
<feColorMatrix in="SourceAlpha" type="matrix" values="0 0 0 0 0 0 0 0 0 0 0 0 0 0 0 0 0 0 127 0" result="hardAlpha"/>
<feOffset dy="1"/>
<feGaussianBlur stdDeviation="5"/>
<feColorMatrix type="matrix" values="0 0 0 0 0 0 0 0 0 0 0 0 0 0 0 0 0 0 0.05 0"/>
<feBlend mode="normal" in2="BackgroundImageFix" result="effect1_dropShadow_11_1445"/>
<feBlend mode="normal" in="SourceGraphic" in2="effect1_dropShadow_11_1445" result="shape"/>
</filter>
<linearGradient id="paint0_linear_11_1445" x1="255.354" y1="201.424" x2="69.4373" y2="83.9519" gradientUnits="userSpaceOnUse">
<stop stop-color="white"/>
<stop offset="1" stop-color="white" stop-opacity="0"/>
</linearGradient>
</defs>
</svg>
